<svg width="2489" height="575" xmlns="http://www.w3.org/2000/svg" xmlns:xlink="http://www.w3.org/1999/xlink" xml:space="preserve" overflow="hidden"><defs><clipPath id="clip0"><rect x="1346" y="1031" width="2489" height="575"/></clipPath></defs><g clip-path="url(#clip0)" transform="translate(-1346 -1031)"><path d="M1776.5 1062.36C1776.5 1048.63 1787.63 1037.5 1801.36 1037.5L3168.64 1037.5C3182.37 1037.5 3193.5 1048.63 3193.5 1062.36L3193.5 1502.64C3193.5 1516.37 3182.37 1527.5 3168.64 1527.5L1801.36 1527.5C1787.63 1527.5 1776.5 1516.37 1776.5 1502.64Z" stroke="#203864" stroke-width="4.58333" stroke-miterlimit="8" fill="#DAE3F3" fill-rule="evenodd"/><text font-family="CMU Serif,CMU Serif_MSFontService,sans-serif" font-weight="500" font-size="64" transform="matrix(1 0 0 1 2264.32 1481)">Feature<tspan font-size="64" x="237.76" y="0">Refiner</tspan></text><rect x="1374.5" y="1033.5" width="195" height="397" stroke="#000000" stroke-width="4.58333" stroke-miterlimit="8" fill="#FFFFFF"/><rect x="1381.5" y="1040.5" width="195" height="396" stroke="#000000" stroke-width="4.58333" stroke-miterlimit="8" fill="#FFFFFF"/><rect x="1388.5" y="1046.5" width="195" height="397" stroke="#000000" stroke-width="4.58333" stroke-miterlimit="8" fill="#FFFFFF"/><rect x="1396.5" y="1053.5" width="195" height="397" stroke="#000000" stroke-width="4.58333" stroke-miterlimit="8" fill="#FFFFFF"/><rect x="1403.5" y="1059.5" width="195" height="397" stroke="#000000" stroke-width="4.58333" stroke-miterlimit="8" fill="#FFFFFF"/><rect x="1410.5" y="1066.5" width="195" height="397" stroke="#000000" stroke-width="4.58333" stroke-miterlimit="8" fill="#FFFFFF"/><path d="M1444.76 1090.8 1463.57 1090.8 1463.57 1093.61 1451.32 1093.61 1451.32 1154.96 1451.32 1168.21 1451.32 1213.58 1451.32 1233.08 1451.32 1272.2 1451.32 1291.71 1451.32 1337.09 1451.32 1350.33 1451.32 1411.68 1463.57 1411.68 1463.57 1414.49 1444.76 1414.49 1444.76 1350.33 1444.76 1291.71 1444.76 1233.08 1444.76 1168.21 1444.76 1154.96ZM1532.92 1090.8 1551.73 1090.8 1551.73 1154.96 1551.73 1168.21 1551.73 1213.58 1551.73 1233.08 1551.73 1272.2 1551.73 1291.71 1551.73 1337.09 1551.73 1350.33 1551.73 1414.49 1532.92 1414.49 1532.92 1411.68 1545.17 1411.68 1545.17 1350.33 1545.17 1337.09 1545.17 1291.71 1545.17 1272.2 1545.17 1233.08 1545.17 1213.58 1545.17 1168.21 1545.17 1154.96 1545.17 1093.61 1532.92 1093.61Z" fill-rule="evenodd"/><path d="M1476.87 1080.63 1499.09 1080.63 1499.68 1082.19 1484.77 1099.32C1481.88 1102.63 1479.37 1105.44 1477.24 1107.75L1477.43 1107.97 1484.49 1107.97C1485.74 1107.97 1486.7 1107.9 1487.37 1107.77 1488.03 1107.63 1488.62 1107.38 1489.12 1107 1489.62 1106.63 1490.13 1106.06 1490.66 1105.3 1491.2 1104.54 1491.86 1103.35 1492.65 1101.72L1495.43 1101.72 1493.52 1110.5 1470.9 1110.5 1470.31 1108.97 1487.4 1089.28C1489.82 1086.51 1491.59 1084.55 1492.71 1083.38L1492.52 1083.16 1485.21 1083.16C1484.13 1083.16 1483.34 1083.23 1482.84 1083.38 1482.34 1083.52 1481.84 1083.78 1481.34 1084.14 1480.84 1084.51 1480.3 1085.05 1479.73 1085.77 1479.15 1086.49 1478.51 1087.51 1477.81 1088.85L1475.02 1088.85Z" fill-rule="evenodd"/><text fill="#000000" fill-opacity="0" font-family="Arial,Arial_MSFontService,sans-serif" font-size="29.875" x="1470.31" y="1106.77">ğ‘§</text><path d="M1512.9 1094.03 1514.3 1094.03C1514.27 1094.87 1514.25 1095.63 1514.24 1096.29 1514.22 1096.96 1514.21 1097.6 1514.2 1098.23 1514.19 1098.86 1514.19 1099.48 1514.19 1100.09L1514.19 1117.53C1514.19 1118 1514.21 1118.41 1514.24 1118.76 1514.27 1119.1 1514.32 1119.39 1514.38 1119.63 1514.45 1119.87 1514.55 1120.07 1514.66 1120.24 1514.78 1120.41 1514.91 1120.55 1515.06 1120.67 1515.25 1120.86 1515.49 1121 1515.8 1121.1 1516.1 1121.2 1516.49 1121.28 1516.97 1121.35 1517.44 1121.42 1518.01 1121.47 1518.68 1121.51 1519.34 1121.55 1520.14 1121.58 1521.07 1121.59L1521.07 1123.59 1502.88 1123.59 1502.88 1121.59C1503.78 1121.56 1504.54 1121.53 1505.17 1121.49 1505.8 1121.45 1506.33 1121.4 1506.78 1121.33 1507.22 1121.26 1507.58 1121.18 1507.84 1121.1 1508.11 1121.01 1508.35 1120.91 1508.54 1120.79 1508.76 1120.65 1508.94 1120.5 1509.1 1120.34 1509.25 1120.18 1509.37 1119.98 1509.46 1119.73 1509.55 1119.49 1509.63 1119.19 1509.68 1118.84 1509.73 1118.49 1509.76 1118.05 1509.76 1117.53L1509.76 1101.08C1509.76 1100.48 1509.65 1100.06 1509.42 1099.81 1509.19 1099.57 1508.86 1099.45 1508.43 1099.45 1507.96 1099.45 1507.25 1099.69 1506.32 1100.18 1505.39 1100.67 1504.18 1101.4 1502.69 1102.36 1502.49 1102.01 1502.31 1101.66 1502.14 1101.31 1501.97 1100.95 1501.8 1100.59 1501.61 1100.23 1503.51 1099.19 1505.39 1098.15 1507.25 1097.12 1509.11 1096.08 1510.99 1095.06 1512.9 1094.03Z" fill-rule="evenodd"/><text fill="#000000" fill-opacity="0" font-family="Arial,Arial_MSFontService,sans-serif" font-size="29.5586" x="1501.61" y="1119.89">1</text><path d="M1476.13 1155.86 1498.35 1155.86 1498.95 1157.43 1484.04 1174.55C1481.15 1177.86 1478.63 1180.68 1476.51 1182.99L1476.7 1183.21 1483.76 1183.21C1485.01 1183.21 1485.97 1183.14 1486.63 1183 1487.3 1182.87 1487.88 1182.61 1488.38 1182.24 1488.88 1181.86 1489.4 1181.3 1489.93 1180.54 1490.46 1179.78 1491.12 1178.58 1491.92 1176.96L1494.7 1176.96 1492.79 1185.74 1470.17 1185.74 1469.57 1184.21 1486.67 1164.52C1489.08 1161.75 1490.85 1159.78 1491.98 1158.61L1491.79 1158.4 1484.48 1158.4C1483.4 1158.4 1482.6 1158.47 1482.1 1158.61 1481.6 1158.76 1481.1 1159.01 1480.6 1159.38 1480.1 1159.74 1479.57 1160.29 1478.99 1161 1478.42 1161.72 1477.78 1162.75 1477.07 1164.08L1474.29 1164.08Z" fill-rule="evenodd"/><text fill="#000000" fill-opacity="0" font-family="Arial,Arial_MSFontService,sans-serif" font-size="29.875" x="1469.57" y="1182">ğ‘§</text><path d="M1511.87 1169.11C1513.46 1169.11 1514.82 1169.28 1515.94 1169.64 1517.07 1170 1517.98 1170.49 1518.69 1171.1 1519.39 1171.71 1519.9 1172.45 1520.21 1173.3 1520.53 1174.16 1520.68 1175.09 1520.68 1176.08 1520.68 1176.68 1520.64 1177.23 1520.56 1177.75 1520.47 1178.26 1520.33 1178.76 1520.12 1179.26 1519.91 1179.76 1519.64 1180.26 1519.31 1180.76 1518.97 1181.27 1518.55 1181.8 1518.04 1182.37 1517.66 1182.86 1517.16 1183.43 1516.55 1184.07 1515.94 1184.71 1515.27 1185.4 1514.54 1186.13 1513.82 1186.87 1513.06 1187.63 1512.26 1188.43 1511.47 1189.22 1510.69 1190.01 1509.94 1190.79 1509.19 1191.57 1508.51 1192.33 1507.88 1193.06 1507.25 1193.8 1506.74 1194.47 1506.34 1195.08L1514.83 1195.08C1515.55 1195.08 1516.12 1195.06 1516.55 1195 1516.98 1194.95 1517.34 1194.83 1517.62 1194.65 1517.9 1194.46 1518.14 1194.18 1518.34 1193.81 1518.54 1193.44 1518.77 1192.92 1519.03 1192.26L1521.17 1192.26C1521.09 1193.35 1521.02 1194.44 1520.95 1195.54 1520.88 1196.64 1520.81 1197.74 1520.73 1198.82L1501.29 1198.82 1501.29 1197.63C1501.66 1196.8 1502.09 1195.99 1502.58 1195.19 1503.07 1194.38 1503.62 1193.57 1504.23 1192.74 1504.84 1191.92 1505.54 1191.06 1506.32 1190.18 1507.1 1189.3 1507.96 1188.39 1508.91 1187.44 1510.35 1186 1511.52 1184.78 1512.42 1183.76 1513.32 1182.74 1514.04 1181.83 1514.56 1181.04 1515.08 1180.24 1515.43 1179.51 1515.62 1178.84 1515.81 1178.16 1515.91 1177.44 1515.91 1176.68 1515.91 1175.9 1515.8 1175.18 1515.58 1174.52 1515.36 1173.86 1515.04 1173.3 1514.62 1172.85 1514.21 1172.39 1513.69 1172.03 1513.05 1171.77 1512.42 1171.51 1511.69 1171.38 1510.86 1171.38 1509.44 1171.38 1508.24 1171.76 1507.28 1172.54 1506.32 1173.31 1505.57 1174.43 1505.03 1175.9L1502.03 1175.9 1502.03 1171.42C1503.98 1170.61 1505.79 1170.02 1507.43 1169.66 1509.07 1169.29 1510.56 1169.11 1511.87 1169.11Z" fill-rule="evenodd"/><text fill="#000000" fill-opacity="0" font-family="Arial,Arial_MSFontService,sans-serif" font-size="29.7192" x="1501.29" y="1195.11">2</text><path d="M1476.13 1231.1 1498.35 1231.1 1498.95 1232.66 1484.04 1249.79C1481.15 1253.1 1478.63 1255.91 1476.51 1258.22L1476.7 1258.44 1483.76 1258.44C1485.01 1258.44 1485.97 1258.38 1486.63 1258.24 1487.3 1258.1 1487.88 1257.85 1488.38 1257.47 1488.88 1257.1 1489.4 1256.53 1489.93 1255.77 1490.46 1255.01 1491.12 1253.82 1491.92 1252.19L1494.7 1252.19 1492.79 1260.97 1470.17 1260.97 1469.57 1259.44 1486.67 1239.76C1489.08 1236.98 1490.85 1235.02 1491.98 1233.85L1491.79 1233.63 1484.48 1233.63C1483.4 1233.63 1482.6 1233.7 1482.1 1233.85 1481.6 1234 1481.1 1234.25 1480.6 1234.61 1480.1 1234.98 1479.57 1235.52 1478.99 1236.24 1478.42 1236.96 1477.78 1237.98 1477.07 1239.32L1474.29 1239.32Z" fill-rule="evenodd"/><text fill="#000000" fill-opacity="0" font-family="Arial,Arial_MSFontService,sans-serif" font-size="29.875" x="1469.57" y="1257.24">ğ‘§</text><path d="M1511.82 1244.34C1513.05 1244.34 1514.19 1244.47 1515.26 1244.73 1516.32 1244.99 1517.24 1245.38 1518.02 1245.91 1518.8 1246.44 1519.41 1247.1 1519.85 1247.89 1520.28 1248.67 1520.5 1249.59 1520.5 1250.63 1520.5 1251.61 1520.36 1252.47 1520.09 1253.22 1519.81 1253.97 1519.39 1254.65 1518.81 1255.26 1518.24 1255.88 1517.54 1256.43 1516.7 1256.93 1515.87 1257.43 1514.91 1257.9 1513.82 1258.36L1513.82 1258.64C1514.85 1258.82 1515.8 1259.12 1516.69 1259.52 1517.58 1259.93 1518.35 1260.44 1519.02 1261.06 1519.69 1261.68 1520.21 1262.39 1520.59 1263.2 1520.97 1264.02 1521.17 1264.91 1521.17 1265.89 1521.17 1267.11 1520.94 1268.25 1520.48 1269.3 1520.02 1270.35 1519.33 1271.25 1518.41 1272.02 1517.49 1272.78 1516.36 1273.38 1515.01 1273.81 1513.67 1274.24 1512.09 1274.45 1510.29 1274.45 1508.86 1274.45 1507.42 1274.31 1505.95 1274.03 1504.48 1273.74 1503.09 1273.37 1501.77 1272.91L1501.77 1267.96 1504.73 1267.96C1504.98 1268.72 1505.27 1269.37 1505.61 1269.92 1505.94 1270.46 1506.34 1270.9 1506.79 1271.25 1507.24 1271.59 1507.76 1271.84 1508.35 1271.99 1508.94 1272.15 1509.61 1272.22 1510.36 1272.22 1512.33 1272.22 1513.83 1271.75 1514.84 1270.81 1515.86 1269.87 1516.37 1268.44 1516.37 1266.53 1516.37 1264.5 1515.7 1262.96 1514.36 1261.91 1513.02 1260.86 1511.04 1260.34 1508.41 1260.34L1506.39 1260.34 1506.39 1258.13C1507.99 1258.06 1509.38 1257.83 1510.55 1257.46 1511.72 1257.08 1512.7 1256.6 1513.48 1256 1514.26 1255.4 1514.84 1254.71 1515.22 1253.91 1515.6 1253.11 1515.8 1252.27 1515.8 1251.36 1515.8 1249.89 1515.36 1248.74 1514.49 1247.89 1513.61 1247.04 1512.35 1246.61 1510.7 1246.61 1509.31 1246.61 1508.14 1246.99 1507.2 1247.76 1506.26 1248.53 1505.54 1249.66 1505.03 1251.18L1502.12 1251.18 1502.12 1246.66C1503.92 1245.89 1505.62 1245.32 1507.22 1244.93 1508.82 1244.54 1510.36 1244.34 1511.82 1244.34Z" fill-rule="evenodd"/><text fill="#000000" fill-opacity="0" font-family="Arial,Arial_MSFontService,sans-serif" font-size="30.1094" x="1501.77" y="1270.69">3</text><path d="M1498.18 1328.65C1499.27 1328.65 1500.17 1329.03 1500.9 1329.79 1501.63 1330.55 1502 1331.51 1502 1332.68 1502 1333.85 1501.63 1334.81 1500.9 1335.57 1500.17 1336.33 1499.27 1336.71 1498.18 1336.71 1497.1 1336.71 1496.2 1336.33 1495.47 1335.57 1494.74 1334.81 1494.37 1333.85 1494.37 1332.68 1494.37 1331.51 1494.74 1330.55 1495.47 1329.79 1496.2 1329.03 1497.1 1328.65 1498.18 1328.65ZM1498.18 1312.02C1499.27 1312.02 1500.17 1312.4 1500.9 1313.16 1501.63 1313.92 1502 1314.89 1502 1316.05 1502 1317.22 1501.63 1318.18 1500.9 1318.94 1500.17 1319.7 1499.27 1320.08 1498.18 1320.08 1497.1 1320.08 1496.2 1319.7 1495.47 1318.94 1494.74 1318.18 1494.37 1317.22 1494.37 1316.05 1494.37 1314.89 1494.74 1313.92 1495.47 1313.16 1496.2 1312.4 1497.1 1312.02 1498.18 1312.02ZM1498.18 1295.4C1499.27 1295.4 1500.17 1295.78 1500.9 1296.54 1501.63 1297.3 1502 1298.26 1502 1299.43 1502 1300.6 1501.63 1301.56 1500.9 1302.32 1500.17 1303.08 1499.27 1303.46 1498.18 1303.46 1497.1 1303.46 1496.2 1303.08 1495.47 1302.32 1494.74 1301.56 1494.37 1300.6 1494.37 1299.43 1494.37 1298.26 1494.74 1297.3 1495.47 1296.54 1496.2 1295.78 1497.1 1295.4 1498.18 1295.4Z" fill-rule="evenodd"/><text fill="#000000" fill-opacity="0" font-family="Arial,Arial_MSFontService,sans-serif" font-size="41.3125" x="1494.37" y="1331.55">â‹®</text><path d="M1472.12 1381.57 1494.34 1381.57 1494.94 1383.13 1480.03 1400.26C1477.13 1403.57 1474.62 1406.38 1472.5 1408.7L1472.69 1408.91 1479.75 1408.91C1481 1408.91 1481.96 1408.85 1482.62 1408.71 1483.29 1408.58 1483.87 1408.32 1484.37 1407.95 1484.87 1407.57 1485.39 1407 1485.92 1406.24 1486.45 1405.48 1487.11 1404.29 1487.91 1402.66L1490.69 1402.66 1488.78 1411.45 1466.16 1411.45 1465.56 1409.91 1482.66 1390.23C1485.07 1387.46 1486.84 1385.49 1487.97 1384.32L1487.78 1384.1 1480.47 1384.1C1479.38 1384.1 1478.59 1384.17 1478.09 1384.32 1477.59 1384.47 1477.09 1384.72 1476.59 1385.09 1476.09 1385.45 1475.56 1385.99 1474.98 1386.71 1474.41 1387.43 1473.77 1388.46 1473.06 1389.79L1470.28 1389.79Z" fill-rule="evenodd"/><text fill="#000000" fill-opacity="0" font-family="Arial,Arial_MSFontService,sans-serif" font-size="29.875" x="1465.56" y="1407.71">ğ‘§</text><path d="M1510.87 1397.15C1510.33 1397.15 1509.86 1397.16 1509.46 1397.18 1509.05 1397.19 1508.68 1397.21 1508.34 1397.24L1502.77 1422.1C1502.83 1422.1 1502.96 1422.1 1503.18 1422.11 1503.39 1422.12 1503.63 1422.12 1503.89 1422.13 1504.15 1422.14 1504.41 1422.15 1504.68 1422.16 1504.95 1422.16 1505.17 1422.17 1505.34 1422.17 1507.85 1422.17 1509.97 1421.78 1511.7 1421.01 1513.44 1420.24 1514.93 1419.03 1516.17 1417.39 1517.41 1415.7 1518.32 1413.92 1518.9 1412.06 1519.48 1410.2 1519.77 1408.18 1519.77 1406.01 1519.77 1404.6 1519.58 1403.35 1519.19 1402.25 1518.8 1401.15 1518.22 1400.22 1517.46 1399.46 1516.71 1398.7 1515.77 1398.13 1514.66 1397.74 1513.56 1397.35 1512.29 1397.15 1510.87 1397.15ZM1501.34 1394.77 1510.43 1394.77C1511.91 1394.77 1513.2 1394.83 1514.3 1394.97 1515.39 1395.11 1516.34 1395.32 1517.13 1395.59 1518.22 1395.9 1519.21 1396.34 1520.12 1396.92 1521.02 1397.5 1521.8 1398.23 1522.46 1399.09 1523.11 1399.96 1523.63 1400.97 1523.99 1402.12 1524.36 1403.28 1524.54 1404.57 1524.54 1406.01 1524.54 1408.75 1524.12 1411.25 1523.28 1413.52 1522.44 1415.78 1521.21 1417.73 1519.59 1419.36 1517.97 1420.98 1515.97 1422.25 1513.6 1423.17 1511.23 1424.08 1508.5 1424.53 1505.43 1424.53L1495.67 1424.53 1495.93 1423.13C1496.4 1423.05 1496.79 1422.97 1497.09 1422.87 1497.38 1422.77 1497.65 1422.55 1497.89 1422.22 1498.13 1421.9 1498.34 1421.4 1498.54 1420.74 1498.74 1420.09 1498.97 1419.15 1499.23 1417.94L1503 1401.21C1503.15 1400.54 1503.26 1399.94 1503.34 1399.42 1503.42 1398.9 1503.45 1398.46 1503.45 1398.09 1503.45 1397.42 1503.28 1396.94 1502.93 1396.66 1502.57 1396.38 1501.93 1396.23 1501 1396.21Z" fill-rule="evenodd"/><text fill="#000000" fill-opacity="0" font-family="Arial,Arial_MSFontService,sans-serif" font-size="29.7651" x="1495.67" y="1420.81">ğ·</text><path d="M1563.97 1420.06C1565.28 1420.06 1566.32 1420.49 1567.08 1421.36 1567.84 1422.22 1568.22 1423.35 1568.22 1424.75 1568.22 1425.85 1567.97 1427.08 1567.47 1428.44L1567.85 1428.56C1569.89 1425.69 1571.83 1423.56 1573.67 1422.17 1575.52 1420.79 1577.42 1420.09 1579.38 1420.09 1581.31 1420.09 1582.8 1420.65 1583.85 1421.76 1584.89 1422.88 1585.41 1424.43 1585.41 1426.4 1585.41 1427.72 1585.11 1429.58 1584.5 1432L1582.47 1440.19C1581.91 1442.46 1581.63 1444.06 1581.63 1445 1581.63 1445.83 1581.76 1446.44 1582.03 1446.81 1582.3 1447.19 1582.73 1447.37 1583.31 1447.37 1583.94 1447.37 1584.61 1447.12 1585.31 1446.61 1586.02 1446.1 1587.02 1445.12 1588.31 1443.69L1590.1 1445.44C1588.3 1447.35 1586.74 1448.75 1585.41 1449.64 1584.07 1450.52 1582.55 1450.97 1580.85 1450.97 1579.49 1450.97 1578.41 1450.48 1577.6 1449.51 1576.78 1448.55 1576.38 1447.31 1576.38 1445.81 1576.38 1444.46 1576.72 1442.47 1577.41 1439.84L1578.78 1434.44C1579.28 1432.48 1579.61 1431.03 1579.77 1430.09 1579.92 1429.15 1580 1428.39 1580 1427.81 1580 1426.37 1579.76 1425.34 1579.28 1424.7 1578.8 1424.07 1578.02 1423.75 1576.94 1423.75 1576.06 1423.75 1575.12 1424.1 1574.11 1424.8 1573.1 1425.49 1572.03 1426.55 1570.89 1427.95 1569.76 1429.36 1568.85 1430.72 1568.16 1432.05 1567.47 1433.37 1566.91 1435 1566.47 1436.94L1563.5 1450.47 1558.1 1450.47 1562.66 1430.65C1563.12 1428.65 1563.35 1427.11 1563.35 1426.03 1563.35 1425.2 1563.21 1424.59 1562.94 1424.22 1562.67 1423.84 1562.24 1423.65 1561.66 1423.65 1561.01 1423.65 1560.33 1423.92 1559.61 1424.45 1558.89 1424.98 1557.91 1425.95 1556.66 1427.34L1554.88 1425.59C1556.79 1423.59 1558.39 1422.17 1559.66 1421.33 1560.93 1420.48 1562.37 1420.06 1563.97 1420.06Z" fill-rule="evenodd"/><text fill="#000000" fill-opacity="0" font-family="Arial,Arial_MSFontService,sans-serif" font-size="30.9062" x="1554.88" y="1447.1">ğ‘›</text><path d="M1606 1234.85 1794.03 1234.85 1794.03 1237.15 1606 1237.15ZM1789.44 1222.25 1816.94 1236 1789.44 1249.75Z" fill="#0065BD"/><text font-family="CMU Serif,CMU Serif_MSFontService,sans-serif" font-weight="500" font-size="50" transform="matrix(1 0 0 1 1653.52 1214)">512</text><path d="M3142.01 1234.85 3297.75 1235.89 3297.74 1238.18 3141.99 1237.15ZM3293.25 1223.26 3320.66 1237.19 3293.07 1250.76Z" fill="#0065BD"/><text font-family="CMU Serif,CMU Serif_MSFontService,sans-serif" font-weight="500" font-size="50" transform="matrix(1 0 0 1 3214.05 1218)">64</text><path d="M3320.5 1056.17C3320.5 1045.86 3328.86 1037.5 3339.17 1037.5L3413.83 1037.5C3424.14 1037.5 3432.5 1045.86 3432.5 1056.17L3432.5 1419.83C3432.5 1430.14 3424.14 1438.5 3413.83 1438.5L3339.17 1438.5C3328.86 1438.5 3320.5 1430.14 3320.5 1419.83Z" stroke="#BC8C00" stroke-width="4.58333" stroke-miterlimit="8" fill="#BF9000" fill-rule="evenodd"/><text fill="#FFFFFF" font-family="CMU Serif,CMU Serif_MSFontService,sans-serif" font-weight="500" font-size="50" transform="matrix(6.12323e-17 -1 1 6.12323e-17 3389.09 1399)">FC + <tspan font-size="50" x="141" y="-8.63376e-15">Softmax</tspan></text><path d="M3434 1236.85 3553.94 1236.85 3553.94 1239.15 3434 1239.15ZM3549.36 1224.25 3576.86 1238 3549.36 1251.75Z" fill="#0065BD"/><path d="M3579.29 1078.14 3598.1 1078.14 3598.1 1080.95 3585.85 1080.95 3585.85 1142.53 3585.85 1155.55 3585.85 1201.38 3585.85 1220.65 3585.85 1260.23 3585.85 1279.5 3585.85 1325.34 3585.85 1338.35 3585.85 1399.94 3598.1 1399.94 3598.1 1402.75 3579.29 1402.75 3579.29 1338.35 3579.29 1279.5 3579.29 1220.65 3579.29 1155.55 3579.29 1142.53ZM3671.55 1078.14 3690.36 1078.14 3690.36 1142.53 3690.36 1155.55 3690.36 1201.38 3690.36 1220.65 3690.36 1260.23 3690.36 1279.5 3690.36 1325.34 3690.36 1338.35 3690.36 1402.75 3671.55 1402.75 3671.55 1399.94 3683.8 1399.94 3683.8 1338.35 3683.8 1325.34 3683.8 1279.5 3683.8 1260.23 3683.8 1220.65 3683.8 1201.38 3683.8 1155.55 3683.8 1142.53 3683.8 1080.95 3671.55 1080.95Z" fill-rule="evenodd"/><path d="M3627.05 1071.65C3625.99 1071.65 3624.94 1072.01 3623.91 1072.73 3622.88 1073.45 3621.75 1074.6 3620.52 1076.18 3619.29 1077.77 3618.33 1079.33 3617.65 1080.87 3616.96 1082.41 3616.42 1084.18 3616.02 1086.18L3615.77 1087.5C3615.56 1088.6 3615.43 1089.44 3615.38 1090.03 3615.33 1090.61 3615.3 1091.18 3615.3 1091.75 3615.3 1093.37 3615.65 1094.55 3616.35 1095.29 3617.05 1096.03 3618.25 1096.4 3619.96 1096.4 3621.02 1096.4 3622 1096.19 3622.9 1095.78 3623.79 1095.36 3624.64 1094.76 3625.44 1093.96 3626.24 1093.17 3626.97 1092.21 3627.61 1091.09 3628.26 1089.96 3628.84 1088.66 3629.35 1087.17 3629.86 1085.68 3630.24 1084.15 3630.51 1082.57 3630.77 1081 3630.9 1079.53 3630.9 1078.15 3630.9 1075.96 3630.59 1074.33 3629.97 1073.26 3629.36 1072.19 3628.39 1071.65 3627.05 1071.65ZM3613.9 1067.96C3615.19 1067.96 3616.21 1068.39 3616.97 1069.25 3617.73 1070.1 3618.11 1071.24 3618.11 1072.65 3618.11 1073.82 3617.88 1075.05 3617.4 1076.34L3617.77 1076.46C3621.63 1070.82 3625.46 1068 3629.27 1068 3631.54 1068 3633.31 1068.86 3634.57 1070.59 3635.83 1072.32 3636.46 1074.76 3636.46 1077.9 3636.46 1081.34 3635.77 1084.72 3634.38 1088.04 3632.99 1091.37 3631.07 1094 3628.61 1095.95 3626.16 1097.9 3623.41 1098.87 3620.36 1098.87 3617.59 1098.87 3615.29 1098.27 3613.46 1097.06L3612.02 1103.9C3611.71 1105.38 3611.55 1106.6 3611.55 1107.56 3611.55 1108.48 3611.79 1109.13 3612.26 1109.51 3612.72 1109.9 3613.64 1110.15 3614.99 1110.28L3614.74 1111.81 3605.08 1111.81 3612.61 1078.65C3613.05 1076.74 3613.27 1075.16 3613.27 1073.93 3613.27 1073.1 3613.14 1072.5 3612.86 1072.12 3612.59 1071.75 3612.17 1071.56 3611.58 1071.56 3610.94 1071.56 3610.26 1071.82 3609.54 1072.36 3608.82 1072.89 3607.83 1073.85 3606.58 1075.25L3604.8 1073.5C3606.68 1071.54 3608.27 1070.13 3609.57 1069.26 3610.87 1068.4 3612.31 1067.96 3613.9 1067.96Z" fill-rule="evenodd"/><text fill="#000000" fill-opacity="0" font-family="Arial,Arial_MSFontService,sans-serif" font-size="43.8438" x="3604.8" y="1106.33">ğ‘</text><path d="M3651.53 1081.9 3652.93 1081.9C3652.9 1082.74 3652.88 1083.49 3652.87 1084.16 3652.85 1084.82 3652.84 1085.47 3652.83 1086.1 3652.82 1086.73 3652.82 1087.34 3652.82 1087.96L3652.82 1105.4C3652.82 1105.87 3652.84 1106.28 3652.87 1106.63 3652.9 1106.97 3652.95 1107.26 3653.01 1107.5 3653.08 1107.74 3653.18 1107.94 3653.29 1108.11 3653.41 1108.27 3653.54 1108.42 3653.69 1108.54 3653.88 1108.73 3654.12 1108.87 3654.43 1108.97 3654.73 1109.07 3655.12 1109.15 3655.6 1109.22 3656.07 1109.29 3656.64 1109.34 3657.31 1109.38 3657.97 1109.42 3658.77 1109.44 3659.7 1109.46L3659.7 1111.46 3641.51 1111.46 3641.51 1109.46C3642.41 1109.43 3643.17 1109.4 3643.8 1109.36 3644.43 1109.32 3644.96 1109.27 3645.41 1109.2 3645.85 1109.13 3646.21 1109.05 3646.47 1108.97 3646.74 1108.88 3646.98 1108.78 3647.17 1108.66 3647.39 1108.52 3647.57 1108.37 3647.73 1108.21 3647.88 1108.05 3648 1107.85 3648.09 1107.6 3648.18 1107.36 3648.26 1107.06 3648.31 1106.71 3648.36 1106.35 3648.39 1105.92 3648.39 1105.4L3648.39 1088.94C3648.39 1088.35 3648.28 1087.93 3648.05 1087.68 3647.82 1087.44 3647.49 1087.31 3647.06 1087.31 3646.59 1087.31 3645.88 1087.56 3644.95 1088.05 3644.01 1088.54 3642.81 1089.26 3641.32 1090.23 3641.12 1089.88 3640.94 1089.52 3640.77 1089.17 3640.6 1088.82 3640.43 1088.46 3640.24 1088.09 3642.14 1087.05 3644.02 1086.02 3645.88 1084.98 3647.74 1083.95 3649.62 1082.92 3651.53 1081.9Z" fill-rule="evenodd"/><text fill="#000000" fill-opacity="0" font-family="Arial,Arial_MSFontService,sans-serif" font-size="29.5586" x="3640.24" y="1107.76">1</text><path d="M3626.32 1146.89C3625.26 1146.89 3624.21 1147.25 3623.18 1147.97 3622.15 1148.68 3621.02 1149.84 3619.79 1151.42 3618.56 1153 3617.6 1154.57 3616.91 1156.11 3616.23 1157.65 3615.68 1159.42 3615.29 1161.42L3615.04 1162.73C3614.83 1163.84 3614.7 1164.68 3614.65 1165.26 3614.59 1165.85 3614.57 1166.42 3614.57 1166.98 3614.57 1168.61 3614.92 1169.79 3615.62 1170.53 3616.31 1171.27 3617.52 1171.64 3619.23 1171.64 3620.29 1171.64 3621.27 1171.43 3622.16 1171.01 3623.06 1170.6 3623.91 1169.99 3624.71 1169.2 3625.51 1168.41 3626.24 1167.45 3626.88 1166.33 3627.53 1165.2 3628.11 1163.89 3628.62 1162.4 3629.13 1160.91 3629.51 1159.38 3629.77 1157.81 3630.03 1156.24 3630.16 1154.76 3630.16 1153.39 3630.16 1151.2 3629.86 1149.57 3629.24 1148.5 3628.63 1147.42 3627.65 1146.89 3626.32 1146.89ZM3613.16 1143.2C3614.45 1143.2 3615.48 1143.63 3616.24 1144.48 3617 1145.34 3617.38 1146.47 3617.38 1147.89 3617.38 1149.05 3617.14 1150.28 3616.66 1151.58L3617.04 1151.7C3620.89 1146.05 3624.73 1143.23 3628.54 1143.23 3630.81 1143.23 3632.57 1144.1 3633.83 1145.83 3635.09 1147.55 3635.73 1149.99 3635.73 1153.14 3635.73 1156.58 3635.03 1159.96 3633.65 1163.28 3632.26 1166.6 3630.34 1169.24 3627.88 1171.18 3625.42 1173.13 3622.67 1174.11 3619.63 1174.11 3616.86 1174.11 3614.56 1173.5 3612.73 1172.29L3611.29 1179.14C3610.98 1180.62 3610.82 1181.84 3610.82 1182.79 3610.82 1183.71 3611.05 1184.36 3611.52 1184.75 3611.99 1185.13 3612.9 1185.39 3614.26 1185.51L3614.01 1187.04 3604.35 1187.04 3611.88 1153.89C3612.32 1151.97 3612.54 1150.4 3612.54 1149.17 3612.54 1148.34 3612.4 1147.73 3612.13 1147.36 3611.86 1146.98 3611.43 1146.79 3610.85 1146.79 3610.2 1146.79 3609.52 1147.06 3608.8 1147.59 3608.08 1148.12 3607.1 1149.09 3605.85 1150.48L3604.07 1148.73C3605.94 1146.77 3607.53 1145.36 3608.83 1144.5 3610.14 1143.63 3611.58 1143.2 3613.16 1143.2Z" fill-rule="evenodd"/><text fill="#000000" fill-opacity="0" font-family="Arial,Arial_MSFontService,sans-serif" font-size="43.8438" x="3604.07" y="1181.56">ğ‘</text><path d="M3650.5 1156.97C3652.09 1156.97 3653.45 1157.15 3654.57 1157.51 3655.7 1157.87 3656.61 1158.36 3657.32 1158.97 3658.02 1159.58 3658.53 1160.32 3658.84 1161.17 3659.16 1162.03 3659.31 1162.95 3659.31 1163.95 3659.31 1164.55 3659.27 1165.1 3659.19 1165.61 3659.1 1166.13 3658.96 1166.63 3658.75 1167.13 3658.54 1167.62 3658.27 1168.13 3657.94 1168.63 3657.6 1169.14 3657.18 1169.67 3656.67 1170.24 3656.29 1170.73 3655.79 1171.29 3655.18 1171.94 3654.57 1172.58 3653.9 1173.27 3653.17 1174 3652.45 1174.74 3651.69 1175.5 3650.89 1176.3 3650.1 1177.09 3649.32 1177.88 3648.57 1178.66 3647.82 1179.44 3647.13 1180.2 3646.51 1180.93 3645.88 1181.67 3645.37 1182.34 3644.97 1182.95L3653.46 1182.95C3654.18 1182.95 3654.75 1182.92 3655.18 1182.87 3655.61 1182.82 3655.97 1182.7 3656.25 1182.52 3656.53 1182.33 3656.77 1182.05 3656.97 1181.68 3657.17 1181.3 3657.4 1180.79 3657.66 1180.13L3659.8 1180.13C3659.72 1181.21 3659.65 1182.31 3659.58 1183.41 3659.51 1184.51 3659.44 1185.61 3659.36 1186.69L3639.92 1186.69 3639.92 1185.5C3640.29 1184.67 3640.72 1183.86 3641.21 1183.05 3641.7 1182.25 3642.25 1181.44 3642.86 1180.61 3643.47 1179.78 3644.17 1178.93 3644.95 1178.05 3645.73 1177.17 3646.59 1176.26 3647.54 1175.31 3648.98 1173.87 3650.15 1172.64 3651.05 1171.63 3651.95 1170.61 3652.67 1169.7 3653.19 1168.91 3653.71 1168.11 3654.06 1167.38 3654.25 1166.7 3654.44 1166.03 3654.54 1165.31 3654.54 1164.55 3654.54 1163.77 3654.43 1163.05 3654.21 1162.39 3653.99 1161.73 3653.67 1161.17 3653.25 1160.71 3652.84 1160.25 3652.32 1159.9 3651.68 1159.63 3651.05 1159.37 3650.32 1159.24 3649.49 1159.24 3648.07 1159.24 3646.87 1159.63 3645.91 1160.4 3644.95 1161.18 3644.2 1162.3 3643.66 1163.77L3640.66 1163.77 3640.66 1159.29C3642.61 1158.48 3644.42 1157.89 3646.06 1157.52 3647.7 1157.16 3649.19 1156.97 3650.5 1156.97Z" fill-rule="evenodd"/><text fill="#000000" fill-opacity="0" font-family="Arial,Arial_MSFontService,sans-serif" font-size="29.7192" x="3639.92" y="1182.98">2</text><path d="M3626.32 1222.12C3625.26 1222.12 3624.21 1222.48 3623.18 1223.2 3622.15 1223.92 3621.02 1225.07 3619.79 1226.65 3618.56 1228.24 3617.6 1229.8 3616.91 1231.34 3616.23 1232.88 3615.68 1234.65 3615.29 1236.65L3615.04 1237.97C3614.83 1239.07 3614.7 1239.91 3614.65 1240.5 3614.59 1241.08 3614.57 1241.65 3614.57 1242.22 3614.57 1243.84 3614.92 1245.02 3615.62 1245.76 3616.31 1246.5 3617.52 1246.87 3619.23 1246.87 3620.29 1246.87 3621.27 1246.66 3622.16 1246.25 3623.06 1245.83 3623.91 1245.23 3624.71 1244.44 3625.51 1243.64 3626.24 1242.69 3626.88 1241.56 3627.53 1240.44 3628.11 1239.13 3628.62 1237.64 3629.13 1236.15 3629.51 1234.62 3629.77 1233.05 3630.03 1231.47 3630.16 1230 3630.16 1228.62 3630.16 1226.44 3629.86 1224.81 3629.24 1223.73 3628.63 1222.66 3627.65 1222.12 3626.32 1222.12ZM3613.16 1218.44C3614.45 1218.44 3615.48 1218.86 3616.24 1219.72 3617 1220.57 3617.38 1221.71 3617.38 1223.12 3617.38 1224.29 3617.14 1225.52 3616.66 1226.81L3617.04 1226.94C3620.89 1221.29 3624.73 1218.47 3628.54 1218.47 3630.81 1218.47 3632.57 1219.33 3633.83 1221.06 3635.09 1222.79 3635.73 1225.23 3635.73 1228.37 3635.73 1231.81 3635.03 1235.19 3633.65 1238.51 3632.26 1241.84 3630.34 1244.47 3627.88 1246.42 3625.42 1248.37 3622.67 1249.34 3619.63 1249.34 3616.86 1249.34 3614.56 1248.74 3612.73 1247.53L3611.29 1254.37C3610.98 1255.85 3610.82 1257.07 3610.82 1258.03 3610.82 1258.95 3611.05 1259.6 3611.52 1259.98 3611.99 1260.37 3612.9 1260.62 3614.26 1260.75L3614.01 1262.28 3604.35 1262.28 3611.88 1229.12C3612.32 1227.21 3612.54 1225.63 3612.54 1224.4 3612.54 1223.57 3612.4 1222.97 3612.13 1222.59 3611.86 1222.22 3611.43 1222.03 3610.85 1222.03 3610.2 1222.03 3609.52 1222.3 3608.8 1222.83 3608.08 1223.36 3607.1 1224.32 3605.85 1225.72L3604.07 1223.97C3605.94 1222.01 3607.53 1220.6 3608.83 1219.73 3610.14 1218.87 3611.58 1218.44 3613.16 1218.44Z" fill-rule="evenodd"/><text fill="#000000" fill-opacity="0" font-family="Arial,Arial_MSFontService,sans-serif" font-size="43.8438" x="3604.07" y="1256.8">ğ‘</text><path d="M3650.45 1232.21C3651.68 1232.21 3652.82 1232.34 3653.89 1232.6 3654.95 1232.86 3655.87 1233.25 3656.65 1233.78 3657.43 1234.31 3658.04 1234.97 3658.48 1235.75 3658.91 1236.54 3659.13 1237.46 3659.13 1238.5 3659.13 1239.48 3658.99 1240.34 3658.72 1241.09 3658.44 1241.84 3658.02 1242.52 3657.44 1243.13 3656.87 1243.74 3656.17 1244.3 3655.33 1244.8 3654.5 1245.29 3653.54 1245.77 3652.45 1246.23L3652.45 1246.51C3653.48 1246.69 3654.43 1246.98 3655.32 1247.39 3656.21 1247.79 3656.98 1248.31 3657.65 1248.93 3658.31 1249.55 3658.84 1250.26 3659.22 1251.07 3659.6 1251.88 3659.8 1252.78 3659.8 1253.76 3659.8 1254.98 3659.57 1256.12 3659.11 1257.17 3658.65 1258.21 3657.96 1259.12 3657.04 1259.89 3656.12 1260.65 3654.99 1261.25 3653.64 1261.68 3652.3 1262.1 3650.72 1262.32 3648.92 1262.32 3647.49 1262.32 3646.05 1262.18 3644.58 1261.89 3643.11 1261.61 3641.72 1261.24 3640.4 1260.78L3640.4 1255.82 3643.36 1255.82C3643.61 1256.59 3643.9 1257.24 3644.24 1257.79 3644.57 1258.33 3644.97 1258.77 3645.42 1259.12 3645.87 1259.46 3646.39 1259.71 3646.98 1259.86 3647.57 1260.02 3648.24 1260.09 3648.99 1260.09 3650.96 1260.09 3652.46 1259.62 3653.47 1258.68 3654.49 1257.74 3655 1256.31 3655 1254.4 3655 1252.37 3654.33 1250.82 3652.99 1249.78 3651.65 1248.73 3649.67 1248.2 3647.04 1248.2L3645.02 1248.2 3645.02 1246C3646.62 1245.92 3648.01 1245.7 3649.18 1245.32 3650.35 1244.95 3651.33 1244.46 3652.11 1243.87 3652.89 1243.27 3653.47 1242.57 3653.85 1241.78 3654.23 1240.98 3654.43 1240.13 3654.43 1239.23 3654.43 1237.76 3653.99 1236.6 3653.12 1235.75 3652.24 1234.9 3650.98 1234.48 3649.33 1234.48 3647.94 1234.48 3646.77 1234.86 3645.83 1235.63 3644.89 1236.39 3644.17 1237.53 3643.66 1239.05L3640.75 1239.05 3640.75 1234.53C3642.55 1233.76 3644.25 1233.18 3645.85 1232.79 3647.45 1232.4 3648.99 1232.21 3650.45 1232.21Z" fill-rule="evenodd"/><text fill="#000000" fill-opacity="0" font-family="Arial,Arial_MSFontService,sans-serif" font-size="30.1094" x="3640.4" y="1258.55">3</text><path d="M3634.75 1316.52C3635.84 1316.52 3636.74 1316.9 3637.47 1317.66 3638.2 1318.42 3638.56 1319.38 3638.56 1320.55 3638.56 1321.71 3638.2 1322.68 3637.47 1323.44 3636.74 1324.2 3635.84 1324.58 3634.75 1324.58 3633.67 1324.58 3632.76 1324.2 3632.03 1323.44 3631.3 1322.68 3630.94 1321.71 3630.94 1320.55 3630.94 1319.38 3631.3 1318.42 3632.03 1317.66 3632.76 1316.9 3633.67 1316.52 3634.75 1316.52ZM3634.75 1299.89C3635.84 1299.89 3636.74 1300.27 3637.47 1301.03 3638.2 1301.79 3638.56 1302.75 3638.56 1303.92 3638.56 1305.09 3638.2 1306.05 3637.47 1306.81 3636.74 1307.57 3635.84 1307.95 3634.75 1307.95 3633.67 1307.95 3632.76 1307.57 3632.03 1306.81 3631.3 1306.05 3630.94 1305.09 3630.94 1303.92 3630.94 1302.75 3631.3 1301.79 3632.03 1301.03 3632.76 1300.27 3633.67 1299.89 3634.75 1299.89ZM3634.75 1283.27C3635.84 1283.27 3636.74 1283.65 3637.47 1284.41 3638.2 1285.17 3638.56 1286.13 3638.56 1287.3 3638.56 1288.46 3638.2 1289.43 3637.47 1290.19 3636.74 1290.95 3635.84 1291.33 3634.75 1291.33 3633.67 1291.33 3632.76 1290.95 3632.03 1290.19 3631.3 1289.43 3630.94 1288.46 3630.94 1287.3 3630.94 1286.13 3631.3 1285.17 3632.03 1284.41 3632.76 1283.65 3633.67 1283.27 3634.75 1283.27Z" fill-rule="evenodd"/><text fill="#000000" fill-opacity="0" font-family="Arial,Arial_MSFontService,sans-serif" font-size="41.3125" x="3630.94" y="1319.41">â‹®</text><path d="M3622.31 1372.59C3621.25 1372.59 3620.2 1372.95 3619.17 1373.67 3618.14 1374.39 3617.01 1375.54 3615.78 1377.13 3614.55 1378.71 3613.59 1380.27 3612.9 1381.81 3612.21 1383.35 3611.67 1385.13 3611.28 1387.13L3611.03 1388.44C3610.82 1389.54 3610.69 1390.39 3610.64 1390.97 3610.58 1391.55 3610.56 1392.13 3610.56 1392.69 3610.56 1394.31 3610.91 1395.5 3611.61 1396.23 3612.3 1396.97 3613.51 1397.34 3615.21 1397.34 3616.28 1397.34 3617.26 1397.14 3618.15 1396.72 3619.05 1396.3 3619.9 1395.7 3620.7 1394.91 3621.5 1394.11 3622.23 1393.16 3622.87 1392.03 3623.52 1390.91 3624.09 1389.6 3624.61 1388.11 3625.12 1386.62 3625.5 1385.09 3625.76 1383.52 3626.02 1381.94 3626.15 1380.47 3626.15 1379.09 3626.15 1376.91 3625.84 1375.28 3625.23 1374.2 3624.62 1373.13 3623.64 1372.59 3622.31 1372.59ZM3609.15 1368.91C3610.44 1368.91 3611.47 1369.33 3612.23 1370.19 3612.99 1371.04 3613.37 1372.18 3613.37 1373.59 3613.37 1374.76 3613.13 1375.99 3612.65 1377.28L3613.03 1377.41C3616.88 1371.76 3620.71 1368.94 3624.53 1368.94 3626.8 1368.94 3628.56 1369.8 3629.82 1371.53 3631.08 1373.26 3631.71 1375.7 3631.71 1378.84 3631.71 1382.28 3631.02 1385.66 3629.64 1388.98 3628.25 1392.31 3626.33 1394.94 3623.87 1396.89 3621.41 1398.84 3618.66 1399.81 3615.62 1399.81 3612.85 1399.81 3610.55 1399.21 3608.71 1398L3607.28 1404.84C3606.96 1406.32 3606.81 1407.54 3606.81 1408.5 3606.81 1409.42 3607.04 1410.07 3607.51 1410.45 3607.98 1410.84 3608.89 1411.09 3610.25 1411.22L3610 1412.75 3600.34 1412.75 3607.87 1379.59C3608.31 1377.68 3608.53 1376.1 3608.53 1374.88 3608.53 1374.04 3608.39 1373.44 3608.12 1373.06 3607.85 1372.69 3607.42 1372.5 3606.84 1372.5 3606.19 1372.5 3605.51 1372.77 3604.79 1373.3 3604.07 1373.83 3603.09 1374.79 3601.84 1376.19L3600.06 1374.44C3601.93 1372.48 3603.52 1371.07 3604.82 1370.2 3606.13 1369.34 3607.57 1368.91 3609.15 1368.91Z" fill-rule="evenodd"/><text fill="#000000" fill-opacity="0" font-family="Arial,Arial_MSFontService,sans-serif" font-size="43.8438" x="3600.06" y="1407.27">ğ‘</text><path d="M3649.5 1385.02C3648.96 1385.02 3648.49 1385.03 3648.09 1385.04 3647.68 1385.06 3647.31 1385.08 3646.97 1385.11L3641.4 1409.97C3641.46 1409.97 3641.59 1409.97 3641.81 1409.98 3642.02 1409.98 3642.26 1409.99 3642.52 1410 3642.78 1410.01 3643.04 1410.02 3643.31 1410.02 3643.58 1410.03 3643.8 1410.03 3643.97 1410.03 3646.48 1410.03 3648.6 1409.65 3650.33 1408.88 3652.07 1408.1 3653.56 1406.9 3654.8 1405.26 3656.04 1403.56 3656.95 1401.78 3657.53 1399.93 3658.11 1398.07 3658.4 1396.05 3658.4 1393.88 3658.4 1392.47 3658.21 1391.22 3657.82 1390.11 3657.43 1389.01 3656.85 1388.08 3656.09 1387.33 3655.34 1386.57 3654.4 1386 3653.29 1385.61 3652.19 1385.21 3650.92 1385.02 3649.5 1385.02ZM3639.97 1382.63 3649.06 1382.63C3650.54 1382.63 3651.83 1382.7 3652.93 1382.84 3654.02 1382.98 3654.97 1383.18 3655.76 1383.46 3656.85 1383.77 3657.84 1384.21 3658.75 1384.79 3659.65 1385.37 3660.43 1386.09 3661.09 1386.96 3661.74 1387.82 3662.26 1388.83 3662.62 1389.99 3662.99 1391.14 3663.17 1392.44 3663.17 1393.88 3663.17 1396.62 3662.75 1399.12 3661.91 1401.38 3661.07 1403.65 3659.84 1405.59 3658.22 1407.22 3656.6 1408.85 3654.6 1410.12 3652.23 1411.03 3649.86 1411.94 3647.13 1412.4 3644.06 1412.4L3634.3 1412.4 3634.56 1411C3635.03 1410.92 3635.42 1410.83 3635.72 1410.73 3636.01 1410.64 3636.28 1410.42 3636.52 1410.09 3636.76 1409.76 3636.97 1409.27 3637.17 1408.61 3637.37 1407.95 3637.6 1407.02 3637.86 1405.81L3641.63 1389.08C3641.78 1388.41 3641.89 1387.81 3641.97 1387.29 3642.05 1386.77 3642.08 1386.33 3642.08 1385.96 3642.08 1385.29 3641.91 1384.81 3641.56 1384.53 3641.2 1384.24 3640.56 1384.09 3639.63 1384.08Z" fill-rule="evenodd"/><text fill="#000000" fill-opacity="0" font-family="Arial,Arial_MSFontService,sans-serif" font-size="29.7651" x="3634.3" y="1408.68">ğ·</text><text font-family="CMU Serif,CMU Serif_MSFontService,sans-serif" font-weight="500" font-size="64" transform="matrix(1 0 0 1 3481.63 1545)">Predictions</text><path d="M1914.01 1234.85 2042 1235.67 2041.99 1237.96 1913.99 1237.15ZM2037.5 1223.04 2064.91 1236.97 2037.33 1250.54Z" fill="#0065BD"/><text font-family="CMU Serif,CMU Serif_MSFontService,sans-serif" font-weight="500" font-size="50" transform="matrix(1 0 0 1 1962.67 1218)">64</text><path d="M1817.5 1412.5 1817.5 1059.5 1914.5 1130.1 1914.5 1341.9Z" stroke="#787878" stroke-width="4.58333" stroke-miterlimit="8" fill="#A5A5A5" fill-rule="evenodd"/><text fill="#FFFFFF" font-family="CMU Serif,CMU Serif_MSFontService,sans-serif" font-weight="500" font-size="50" transform="matrix(-1.83697e-16 -1 1 -1.83697e-16 1878.22 1270)">FC</text><path d="M2065.5 1089.83C2065.5 1080.81 2072.81 1073.5 2081.83 1073.5L2147.17 1073.5C2156.19 1073.5 2163.5 1080.81 2163.5 1089.83L2163.5 1384.17C2163.5 1393.19 2156.19 1400.5 2147.17 1400.5L2081.83 1400.5C2072.81 1400.5 2065.5 1393.19 2065.5 1384.17Z" stroke="#AE5A21" stroke-width="4.58333" stroke-miterlimit="8" fill="#ED7D31" fill-rule="evenodd"/><text fill="#FFFFFF" font-family="CMU Serif,CMU Serif_MSFontService,sans-serif" font-weight="500" font-size="50" transform="matrix(6.12323e-17 -1 1 6.12323e-17 2126.57 1361)">LayerNorm</text><path d="M2310.5 1089.67C2310.5 1080.74 2317.74 1073.5 2326.67 1073.5L2391.33 1073.5C2400.26 1073.5 2407.5 1080.74 2407.5 1089.67L2407.5 1384.33C2407.5 1393.26 2400.26 1400.5 2391.33 1400.5L2326.67 1400.5C2317.74 1400.5 2310.5 1393.26 2310.5 1384.33Z" stroke="#507E32" stroke-width="4.58333" stroke-miterlimit="8" fill="#A9D18E" fill-rule="evenodd"/><text fill="#FFFFFF" font-family="CMU Serif,CMU Serif_MSFontService,sans-serif" font-weight="500" font-size="50" transform="matrix(6.12323e-17 -1 1 6.12323e-17 2371.39 1271)">FC</text><path d="M2555.5 1089.67C2555.5 1080.74 2562.74 1073.5 2571.67 1073.5L2636.33 1073.5C2645.26 1073.5 2652.5 1080.74 2652.5 1089.67L2652.5 1384.33C2652.5 1393.26 2645.26 1400.5 2636.33 1400.5L2571.67 1400.5C2562.74 1400.5 2555.5 1393.26 2555.5 1384.33Z" stroke="#2F528F" stroke-width="4.58333" stroke-miterlimit="8" fill="#4472C4" fill-rule="evenodd"/><text fill="#FFFFFF" font-family="CMU Serif,CMU Serif_MSFontService,sans-serif" font-weight="500" font-size="50" transform="matrix(6.12323e-17 -1 1 6.12323e-17 2616.2 1301)">ReLU</text><path d="M2800.5 1089.67C2800.5 1080.74 2807.74 1073.5 2816.67 1073.5L2881.33 1073.5C2890.26 1073.5 2897.5 1080.74 2897.5 1089.67L2897.5 1384.33C2897.5 1393.26 2890.26 1400.5 2881.33 1400.5L2816.67 1400.5C2807.74 1400.5 2800.5 1393.26 2800.5 1384.33Z" stroke="#507E32" stroke-width="4.58333" stroke-miterlimit="8" fill="#A9D18E" fill-rule="evenodd"/><text fill="#FFFFFF" font-family="CMU Serif,CMU Serif_MSFontService,sans-serif" font-weight="500" font-size="50" transform="matrix(6.12323e-17 -1 1 6.12323e-17 2861.02 1271)">FC</text><path d="M3044.5 1089.83C3044.5 1080.81 3051.81 1073.5 3060.83 1073.5L3126.17 1073.5C3135.19 1073.5 3142.5 1080.81 3142.5 1089.83L3142.5 1384.17C3142.5 1393.19 3135.19 1400.5 3126.17 1400.5L3060.83 1400.5C3051.81 1400.5 3044.5 1393.19 3044.5 1384.17Z" stroke="#AE5A21" stroke-width="4.58333" stroke-miterlimit="8" fill="#ED7D31" fill-rule="evenodd"/><text fill="#FFFFFF" font-family="CMU Serif,CMU Serif_MSFontService,sans-serif" font-weight="500" font-size="50" transform="matrix(6.12323e-17 -1 1 6.12323e-17 3105.84 1361)">LayerNorm</text><path d="M2163 1234.85 2287.46 1234.85 2287.46 1237.15 2163 1237.15ZM2282.88 1222.25 2310.38 1236 2282.88 1249.75Z" fill="#0065BD"/><path d="M2407 1234.85 2531.46 1234.85 2531.46 1237.15 2407 1237.15ZM2526.88 1222.25 2554.38 1236 2526.88 1249.75Z" fill="#0065BD"/><path d="M2652 1234.85 2776.46 1234.85 2776.46 1237.15 2652 1237.15ZM2771.88 1222.25 2799.38 1236 2771.88 1249.75Z" fill="#0065BD"/><path d="M2897 1234.85 3021.46 1234.85 3021.46 1237.15 2897 1237.15ZM3016.88 1222.25 3044.38 1236 3016.88 1249.75Z" fill="#0065BD"/><text font-family="CMU Serif,CMU Serif_MSFontService,sans-serif" font-weight="500" font-size="50" transform="matrix(1 0 0 1 2211.92 1218)">64<tspan font-size="50" x="242.414" y="0">64</tspan><tspan font-size="50" x="487.458" y="0">64</tspan><tspan font-size="50" x="735.38" y="-2">64</tspan><tspan font-size="64" x="-827.091" y="325">Features</tspan><tspan font-size="50" x="1267.4" y="0">10</tspan></text></g></svg>